<?xml version="1.0" standalone="no"?>
<!DOCTYPE svg PUBLIC "-//W3C//DTD SVG 20010904//EN"
 "http://www.w3.org/TR/2001/REC-SVG-20010904/DTD/svg10.dtd">
<svg version="1.0" xmlns="http://www.w3.org/2000/svg"
 width="512.000000pt" height="512.000000pt" viewBox="0 0 512.000000 512.000000"
 preserveAspectRatio="xMidYMid meet">

<g transform="translate(0.000000,512.000000) scale(0.100000,-0.100000)"
fill="#c70101" stroke="none">
<path d="M2265 5088 c-44 -5 -136 -20 -205 -34 -506 -101 -942 -336 -1310
-704 -218 -218 -354 -407 -491 -685 -121 -245 -201 -510 -240 -795 -19 -135
-17 -534 4 -675 103 -720 464 -1303 1077 -1742 302 -216 727 -409 948 -430
l62 -6 0 1276 0 1277 -225 2 -224 3 444 815 c245 448 449 815 455 815 6 0 210
-367 455 -815 l444 -815 -224 -3 -225 -2 0 -1276 0 -1277 59 7 c216 25 578
175 851 354 174 115 308 223 447 361 416 414 657 903 735 1491 16 125 16 519
0 635 -68 478 -241 891 -531 1265 -97 126 -330 354 -461 452 -382 285 -814
458 -1272 507 -115 13 -459 12 -573 -1z"/>
</g>
</svg>
